<mxfile host="app.diagrams.net" agent="Mozilla/5.0 (Macintosh; Intel Mac OS X 10_15_7) AppleWebKit/537.36 (KHTML, like Gecko) Chrome/131.0.0.0 Safari/537.36" version="26.0.6">
  <diagram name="第 1 页" id="CcIQUnKUEqkTRxklzS6k">
    <mxGraphModel dx="1026" dy="571" grid="1" gridSize="10" guides="1" tooltips="1" connect="1" arrows="1" fold="1" page="1" pageScale="1" pageWidth="827" pageHeight="1169" math="0" shadow="0">
      <root>
        <mxCell id="0" />
        <mxCell id="1" parent="0" />
        <mxCell id="8wQ5dv-w8WsZKZJ2RTjU-3" value="" style="edgeStyle=orthogonalEdgeStyle;rounded=0;orthogonalLoop=1;jettySize=auto;html=1;" edge="1" parent="1" source="8wQ5dv-w8WsZKZJ2RTjU-1" target="8wQ5dv-w8WsZKZJ2RTjU-2">
          <mxGeometry relative="1" as="geometry" />
        </mxCell>
        <mxCell id="8wQ5dv-w8WsZKZJ2RTjU-1" value="iboss账单查询" style="strokeWidth=2;html=1;shape=mxgraph.flowchart.start_1;whiteSpace=wrap;" vertex="1" parent="1">
          <mxGeometry x="70" y="270" width="100" height="60" as="geometry" />
        </mxCell>
        <mxCell id="8wQ5dv-w8WsZKZJ2RTjU-7" value="" style="edgeStyle=orthogonalEdgeStyle;rounded=0;orthogonalLoop=1;jettySize=auto;html=1;" edge="1" parent="1" source="8wQ5dv-w8WsZKZJ2RTjU-2" target="8wQ5dv-w8WsZKZJ2RTjU-6">
          <mxGeometry relative="1" as="geometry" />
        </mxCell>
        <mxCell id="8wQ5dv-w8WsZKZJ2RTjU-2" value="分析iboss相关接口日志，梳理账单查询前接口触点" style="whiteSpace=wrap;html=1;strokeWidth=2;" vertex="1" parent="1">
          <mxGeometry x="240" y="270" width="120" height="60" as="geometry" />
        </mxCell>
        <mxCell id="8wQ5dv-w8WsZKZJ2RTjU-9" value="" style="edgeStyle=orthogonalEdgeStyle;rounded=0;orthogonalLoop=1;jettySize=auto;html=1;" edge="1" parent="1" source="8wQ5dv-w8WsZKZJ2RTjU-6" target="8wQ5dv-w8WsZKZJ2RTjU-8">
          <mxGeometry relative="1" as="geometry" />
        </mxCell>
        <mxCell id="8wQ5dv-w8WsZKZJ2RTjU-6" value="对有可能查询账单的接口调用后增加出账单预生成埋点" style="whiteSpace=wrap;html=1;strokeWidth=2;" vertex="1" parent="1">
          <mxGeometry x="440" y="270" width="120" height="60" as="geometry" />
        </mxCell>
        <mxCell id="8wQ5dv-w8WsZKZJ2RTjU-8" value="结束" style="strokeWidth=2;html=1;shape=mxgraph.flowchart.terminator;whiteSpace=wrap;" vertex="1" parent="1">
          <mxGeometry x="640" y="270" width="100" height="60" as="geometry" />
        </mxCell>
        <mxCell id="8wQ5dv-w8WsZKZJ2RTjU-14" value="" style="edgeStyle=orthogonalEdgeStyle;rounded=0;orthogonalLoop=1;jettySize=auto;html=1;" edge="1" parent="1" source="8wQ5dv-w8WsZKZJ2RTjU-10" target="8wQ5dv-w8WsZKZJ2RTjU-13">
          <mxGeometry relative="1" as="geometry" />
        </mxCell>
        <mxCell id="8wQ5dv-w8WsZKZJ2RTjU-10" value="iboss账单预生成消息" style="strokeWidth=2;html=1;shape=mxgraph.flowchart.start_1;whiteSpace=wrap;" vertex="1" parent="1">
          <mxGeometry x="60" y="430" width="100" height="60" as="geometry" />
        </mxCell>
        <mxCell id="8wQ5dv-w8WsZKZJ2RTjU-16" value="是" style="edgeStyle=orthogonalEdgeStyle;rounded=0;orthogonalLoop=1;jettySize=auto;html=1;" edge="1" parent="1" source="8wQ5dv-w8WsZKZJ2RTjU-13" target="8wQ5dv-w8WsZKZJ2RTjU-15">
          <mxGeometry relative="1" as="geometry">
            <Array as="points">
              <mxPoint x="350" y="460" />
              <mxPoint x="350" y="460" />
            </Array>
          </mxGeometry>
        </mxCell>
        <mxCell id="8wQ5dv-w8WsZKZJ2RTjU-19" value="" style="edgeStyle=orthogonalEdgeStyle;rounded=0;orthogonalLoop=1;jettySize=auto;html=1;" edge="1" parent="1" source="8wQ5dv-w8WsZKZJ2RTjU-13" target="8wQ5dv-w8WsZKZJ2RTjU-18">
          <mxGeometry relative="1" as="geometry" />
        </mxCell>
        <mxCell id="8wQ5dv-w8WsZKZJ2RTjU-20" value="否" style="edgeLabel;html=1;align=center;verticalAlign=middle;resizable=0;points=[];" vertex="1" connectable="0" parent="8wQ5dv-w8WsZKZJ2RTjU-19">
          <mxGeometry x="0.1556" y="1" relative="1" as="geometry">
            <mxPoint as="offset" />
          </mxGeometry>
        </mxCell>
        <mxCell id="8wQ5dv-w8WsZKZJ2RTjU-13" value="判断redis是否存在账单" style="rhombus;whiteSpace=wrap;html=1;strokeWidth=2;" vertex="1" parent="1">
          <mxGeometry x="260" y="420" width="80" height="80" as="geometry" />
        </mxCell>
        <mxCell id="8wQ5dv-w8WsZKZJ2RTjU-15" value="不做处理" style="whiteSpace=wrap;html=1;strokeWidth=2;" vertex="1" parent="1">
          <mxGeometry x="440" y="430" width="120" height="60" as="geometry" />
        </mxCell>
        <mxCell id="8wQ5dv-w8WsZKZJ2RTjU-22" value="" style="edgeStyle=orthogonalEdgeStyle;rounded=0;orthogonalLoop=1;jettySize=auto;html=1;" edge="1" parent="1" source="8wQ5dv-w8WsZKZJ2RTjU-18" target="8wQ5dv-w8WsZKZJ2RTjU-21">
          <mxGeometry relative="1" as="geometry" />
        </mxCell>
        <mxCell id="8wQ5dv-w8WsZKZJ2RTjU-18" value="生成对应账单" style="whiteSpace=wrap;html=1;strokeWidth=2;" vertex="1" parent="1">
          <mxGeometry x="240" y="550" width="120" height="60" as="geometry" />
        </mxCell>
        <mxCell id="8wQ5dv-w8WsZKZJ2RTjU-21" value="目标账单数据存储redis" style="whiteSpace=wrap;html=1;strokeWidth=2;" vertex="1" parent="1">
          <mxGeometry x="440" y="550" width="120" height="60" as="geometry" />
        </mxCell>
        <mxCell id="8wQ5dv-w8WsZKZJ2RTjU-23" value="结束" style="strokeWidth=2;html=1;shape=mxgraph.flowchart.terminator;whiteSpace=wrap;" vertex="1" parent="1">
          <mxGeometry x="640" y="550" width="100" height="60" as="geometry" />
        </mxCell>
        <mxCell id="8wQ5dv-w8WsZKZJ2RTjU-24" style="edgeStyle=orthogonalEdgeStyle;rounded=0;orthogonalLoop=1;jettySize=auto;html=1;entryX=0;entryY=0.5;entryDx=0;entryDy=0;entryPerimeter=0;" edge="1" parent="1" source="8wQ5dv-w8WsZKZJ2RTjU-21" target="8wQ5dv-w8WsZKZJ2RTjU-23">
          <mxGeometry relative="1" as="geometry" />
        </mxCell>
        <mxCell id="8wQ5dv-w8WsZKZJ2RTjU-25" style="edgeStyle=orthogonalEdgeStyle;rounded=0;orthogonalLoop=1;jettySize=auto;html=1;entryX=0.4;entryY=0.033;entryDx=0;entryDy=0;entryPerimeter=0;" edge="1" parent="1" source="8wQ5dv-w8WsZKZJ2RTjU-15" target="8wQ5dv-w8WsZKZJ2RTjU-23">
          <mxGeometry relative="1" as="geometry" />
        </mxCell>
        <mxCell id="8wQ5dv-w8WsZKZJ2RTjU-26" value="redis-master1&lt;br&gt;主机A" style="rounded=1;whiteSpace=wrap;html=1;absoluteArcSize=1;arcSize=14;strokeWidth=2;" vertex="1" parent="1">
          <mxGeometry x="190" y="830" width="120" height="50" as="geometry" />
        </mxCell>
        <mxCell id="8wQ5dv-w8WsZKZJ2RTjU-28" value="redis-master2&lt;br&gt;主机B" style="rounded=1;whiteSpace=wrap;html=1;absoluteArcSize=1;arcSize=14;strokeWidth=2;" vertex="1" parent="1">
          <mxGeometry x="190" y="910" width="120" height="50" as="geometry" />
        </mxCell>
        <mxCell id="8wQ5dv-w8WsZKZJ2RTjU-29" value="redis-master3&lt;br&gt;主机C" style="rounded=1;whiteSpace=wrap;html=1;absoluteArcSize=1;arcSize=14;strokeWidth=2;" vertex="1" parent="1">
          <mxGeometry x="190" y="990" width="120" height="50" as="geometry" />
        </mxCell>
        <mxCell id="8wQ5dv-w8WsZKZJ2RTjU-30" value="redis-slaver1&lt;br&gt;主机B" style="rounded=1;whiteSpace=wrap;html=1;absoluteArcSize=1;arcSize=14;strokeWidth=2;" vertex="1" parent="1">
          <mxGeometry x="450" y="910" width="120" height="50" as="geometry" />
        </mxCell>
        <mxCell id="8wQ5dv-w8WsZKZJ2RTjU-31" value="redis-slaver2&lt;br&gt;主机C" style="rounded=1;whiteSpace=wrap;html=1;absoluteArcSize=1;arcSize=14;strokeWidth=2;" vertex="1" parent="1">
          <mxGeometry x="450" y="990" width="120" height="50" as="geometry" />
        </mxCell>
        <mxCell id="8wQ5dv-w8WsZKZJ2RTjU-32" value="redis-slaver3&lt;br&gt;主机A" style="rounded=1;whiteSpace=wrap;html=1;absoluteArcSize=1;arcSize=14;strokeWidth=2;" vertex="1" parent="1">
          <mxGeometry x="450" y="830" width="120" height="50" as="geometry" />
        </mxCell>
        <mxCell id="8wQ5dv-w8WsZKZJ2RTjU-38" value="" style="endArrow=classic;startArrow=classic;html=1;rounded=0;entryX=0;entryY=0.5;entryDx=0;entryDy=0;dashed=1;dashPattern=1 1;" edge="1" parent="1" target="8wQ5dv-w8WsZKZJ2RTjU-30">
          <mxGeometry width="50" height="50" relative="1" as="geometry">
            <mxPoint x="310" y="860" as="sourcePoint" />
            <mxPoint x="360" y="810" as="targetPoint" />
            <Array as="points">
              <mxPoint x="380" y="900" />
            </Array>
          </mxGeometry>
        </mxCell>
        <mxCell id="8wQ5dv-w8WsZKZJ2RTjU-39" value="" style="endArrow=classic;startArrow=classic;html=1;rounded=0;entryX=0;entryY=0.5;entryDx=0;entryDy=0;dashed=1;dashPattern=1 1;" edge="1" parent="1">
          <mxGeometry width="50" height="50" relative="1" as="geometry">
            <mxPoint x="310" y="940" as="sourcePoint" />
            <mxPoint x="450" y="1015" as="targetPoint" />
            <Array as="points">
              <mxPoint x="380" y="980" />
            </Array>
          </mxGeometry>
        </mxCell>
        <mxCell id="8wQ5dv-w8WsZKZJ2RTjU-42" value="" style="endArrow=classic;startArrow=classic;html=1;rounded=0;entryX=0;entryY=0.5;entryDx=0;entryDy=0;dashed=1;dashPattern=1 1;exitX=1;exitY=0.5;exitDx=0;exitDy=0;" edge="1" parent="1" source="8wQ5dv-w8WsZKZJ2RTjU-29" target="8wQ5dv-w8WsZKZJ2RTjU-32">
          <mxGeometry width="50" height="50" relative="1" as="geometry">
            <mxPoint x="310" y="1020" as="sourcePoint" />
            <mxPoint x="450" y="1095" as="targetPoint" />
            <Array as="points">
              <mxPoint x="350" y="980" />
            </Array>
          </mxGeometry>
        </mxCell>
        <mxCell id="8wQ5dv-w8WsZKZJ2RTjU-45" value="" style="edgeStyle=orthogonalEdgeStyle;rounded=0;orthogonalLoop=1;jettySize=auto;html=1;" edge="1" parent="1" source="8wQ5dv-w8WsZKZJ2RTjU-43" target="8wQ5dv-w8WsZKZJ2RTjU-44">
          <mxGeometry relative="1" as="geometry" />
        </mxCell>
        <mxCell id="8wQ5dv-w8WsZKZJ2RTjU-43" value="开始" style="strokeWidth=2;html=1;shape=mxgraph.flowchart.start_1;whiteSpace=wrap;" vertex="1" parent="1">
          <mxGeometry x="200" y="1200" width="100" height="60" as="geometry" />
        </mxCell>
        <mxCell id="8wQ5dv-w8WsZKZJ2RTjU-49" value="" style="edgeStyle=orthogonalEdgeStyle;rounded=0;orthogonalLoop=1;jettySize=auto;html=1;" edge="1" parent="1" source="8wQ5dv-w8WsZKZJ2RTjU-44" target="8wQ5dv-w8WsZKZJ2RTjU-48">
          <mxGeometry relative="1" as="geometry" />
        </mxCell>
        <mxCell id="8wQ5dv-w8WsZKZJ2RTjU-44" value="账单查询" style="whiteSpace=wrap;html=1;strokeWidth=2;" vertex="1" parent="1">
          <mxGeometry x="330" y="1200" width="120" height="60" as="geometry" />
        </mxCell>
        <mxCell id="8wQ5dv-w8WsZKZJ2RTjU-51" value="" style="edgeStyle=orthogonalEdgeStyle;rounded=0;orthogonalLoop=1;jettySize=auto;html=1;" edge="1" parent="1" source="8wQ5dv-w8WsZKZJ2RTjU-48" target="8wQ5dv-w8WsZKZJ2RTjU-50">
          <mxGeometry relative="1" as="geometry" />
        </mxCell>
        <mxCell id="8wQ5dv-w8WsZKZJ2RTjU-48" value="redis key生成&lt;br&gt;用户id + 账期" style="whiteSpace=wrap;html=1;strokeWidth=2;" vertex="1" parent="1">
          <mxGeometry x="500" y="1200" width="120" height="60" as="geometry" />
        </mxCell>
        <mxCell id="8wQ5dv-w8WsZKZJ2RTjU-53" value="" style="edgeStyle=orthogonalEdgeStyle;rounded=0;orthogonalLoop=1;jettySize=auto;html=1;" edge="1" parent="1" source="8wQ5dv-w8WsZKZJ2RTjU-50" target="8wQ5dv-w8WsZKZJ2RTjU-52">
          <mxGeometry relative="1" as="geometry" />
        </mxCell>
        <mxCell id="8wQ5dv-w8WsZKZJ2RTjU-54" value="是" style="edgeLabel;html=1;align=center;verticalAlign=middle;resizable=0;points=[];" vertex="1" connectable="0" parent="8wQ5dv-w8WsZKZJ2RTjU-53">
          <mxGeometry x="-0.04" y="2" relative="1" as="geometry">
            <mxPoint as="offset" />
          </mxGeometry>
        </mxCell>
        <mxCell id="8wQ5dv-w8WsZKZJ2RTjU-56" value="" style="edgeStyle=orthogonalEdgeStyle;rounded=0;orthogonalLoop=1;jettySize=auto;html=1;" edge="1" parent="1" source="8wQ5dv-w8WsZKZJ2RTjU-50" target="8wQ5dv-w8WsZKZJ2RTjU-55">
          <mxGeometry relative="1" as="geometry" />
        </mxCell>
        <mxCell id="8wQ5dv-w8WsZKZJ2RTjU-57" value="否" style="edgeLabel;html=1;align=center;verticalAlign=middle;resizable=0;points=[];" vertex="1" connectable="0" parent="8wQ5dv-w8WsZKZJ2RTjU-56">
          <mxGeometry x="-0.08" y="1" relative="1" as="geometry">
            <mxPoint as="offset" />
          </mxGeometry>
        </mxCell>
        <mxCell id="8wQ5dv-w8WsZKZJ2RTjU-50" value="key是否存在" style="rhombus;whiteSpace=wrap;html=1;strokeWidth=2;" vertex="1" parent="1">
          <mxGeometry x="680" y="1190" width="80" height="80" as="geometry" />
        </mxCell>
        <mxCell id="8wQ5dv-w8WsZKZJ2RTjU-61" value="" style="edgeStyle=orthogonalEdgeStyle;rounded=0;orthogonalLoop=1;jettySize=auto;html=1;" edge="1" parent="1" source="8wQ5dv-w8WsZKZJ2RTjU-52">
          <mxGeometry relative="1" as="geometry">
            <mxPoint x="720" y="1430" as="targetPoint" />
          </mxGeometry>
        </mxCell>
        <mxCell id="8wQ5dv-w8WsZKZJ2RTjU-52" value="获取redis里面账单数据" style="whiteSpace=wrap;html=1;strokeWidth=2;" vertex="1" parent="1">
          <mxGeometry x="660" y="1320" width="120" height="60" as="geometry" />
        </mxCell>
        <mxCell id="8wQ5dv-w8WsZKZJ2RTjU-59" value="" style="edgeStyle=orthogonalEdgeStyle;rounded=0;orthogonalLoop=1;jettySize=auto;html=1;" edge="1" parent="1" source="8wQ5dv-w8WsZKZJ2RTjU-55" target="8wQ5dv-w8WsZKZJ2RTjU-58">
          <mxGeometry relative="1" as="geometry" />
        </mxCell>
        <mxCell id="8wQ5dv-w8WsZKZJ2RTjU-55" value="按照原来逻辑查询账单数据" style="whiteSpace=wrap;html=1;strokeWidth=2;" vertex="1" parent="1">
          <mxGeometry x="810" y="1200" width="120" height="60" as="geometry" />
        </mxCell>
        <mxCell id="8wQ5dv-w8WsZKZJ2RTjU-58" value="目标账单数据写入redis" style="whiteSpace=wrap;html=1;strokeWidth=2;" vertex="1" parent="1">
          <mxGeometry x="810" y="1320" width="120" height="60" as="geometry" />
        </mxCell>
        <mxCell id="8wQ5dv-w8WsZKZJ2RTjU-62" style="edgeStyle=orthogonalEdgeStyle;rounded=0;orthogonalLoop=1;jettySize=auto;html=1;entryX=1;entryY=0.5;entryDx=0;entryDy=0;entryPerimeter=0;" edge="1" parent="1" source="8wQ5dv-w8WsZKZJ2RTjU-58">
          <mxGeometry relative="1" as="geometry">
            <mxPoint x="770" y="1460" as="targetPoint" />
            <Array as="points">
              <mxPoint x="880" y="1460" />
            </Array>
          </mxGeometry>
        </mxCell>
        <mxCell id="8wQ5dv-w8WsZKZJ2RTjU-63" value="结束" style="strokeWidth=2;html=1;shape=mxgraph.flowchart.terminator;whiteSpace=wrap;" vertex="1" parent="1">
          <mxGeometry x="660" y="1440" width="100" height="60" as="geometry" />
        </mxCell>
      </root>
    </mxGraphModel>
  </diagram>
</mxfile>
